<svg version="1.1" class="clearos-svg clearfoundation app-vendor-clearfoundation app-free app-category-system app-sub-category-settings" viewBox="0 0 400 400" preserveAspectRatio="xMinYMin" xmlns="http://www.w3.org/2000/svg" xmlns:xlink= "http://www.w3.org/1999/xlink">
    <path d="m 394.27119,132.38101 v -26.25356 l -25.79235,-8.751176 c -2.1689,-8.017316 -5.51367,-15.581675 -9.82203,-22.540147 l 0.035,-0.03399 11.7631,-23.61599 -19.42735,-18.564411 -24.7126,11.240071 -0.0356,0.03399 C 318.9974,39.77881 311.07976,36.582609 302.69145,34.511105 L 293.53352,9.8644067 h -27.4739 l -9.15797,24.6472303 c -8.38887,2.070972 -16.30595,5.267173 -23.58787,9.385753 l -0.0356,-0.03504 -24.71372,-11.24007 -19.42734,18.56441 11.76254,23.61599 0.0367,0.03399 c -4.30947,6.958468 -7.65425,14.524426 -9.82203,22.540134 l -25.79239,8.750656 v 26.25356 l 25.7929,8.75119 c 2.16724,8.01625 5.51312,15.58168 9.82203,22.54014 l -0.0367,0.034 -11.76254,23.61493 19.42733,18.5644 24.71373,-11.2406 0.0356,-0.0334 c 7.28191,4.11698 15.19955,7.31265 23.58787,9.38576 l 9.15741,24.64669 h 27.4739 l 9.15797,-24.64669 c 8.38887,-2.07257 16.30596,-5.26878 23.58787,-9.38576 l 0.0356,0.0334 24.71261,11.2406 19.42734,-18.5644 -11.7631,-23.61493 -0.035,-0.034 c 4.30836,-6.95846 7.65257,-14.52441 9.82202,-22.54014 l 25.79235,-8.75119 z m -114.47458,30.62915 c -25.28943,0 -45.78983,-19.59033 -45.78983,-43.75593 0,-24.166115 20.5004,-43.755923 45.78983,-43.755923 25.28943,0 45.78983,19.589808 45.78983,43.755923 0,24.16613 -20.5004,43.75593 -45.78983,43.75593 z" id="path3207" style="fill:#686868;fill-opacity:1"/>
    <path style="fill:#686868" id="path3113" d="m 359.26573,216.89885 -0.50603,144.8388 -89.54376,-66.07493 -9.78998,12.00738 88.10867,65.01916 -318.323736,0 88.081996,-65.01916 -9.78997,-12.02427 -89.508201,66.05592 0,-155.89646 14.559907,0 164.366444,124.83436 115.21758,-78.04747 -4.193,-2.84216 c -12.98364,4.63381 -27.03777,7.27326 -41.70884,7.27326 -66.19655,0 -119.80743,-50.96988 -119.80743,-113.80251 0,-0.78234 0.1245,-1.54989 0.1245,-2.32272 l -18.08261,-12.20376 -125.1064908,64.46698 0,192.17834 371.3721408,0 -0.20641,-183.3863 z"/>
</svg>
